<svg width="165" height="40" viewBox="0 0 165 40" fill="none" xmlns="http://www.w3.org/2000/svg">
<path d="M14.486 21.9926C9.82359 24.526 7.0901 28.4893 5.23562 33.6365C0.467188 27.9801 -1.01332 21.8973 0.668467 15.0803C2.59501 7.27164 9.25129 1.34907 17.207 0.196715C24.6803 -0.885367 32.7718 2.57527 36.4183 8.64375C35.4327 8.52583 34.6442 8.42816 33.8551 8.33824C28.2684 7.70221 22.6877 7.60812 17.3172 9.51441C10.9235 11.7834 6.2909 15.8116 5.22192 22.9169C5.01527 24.2902 5.19214 25.7212 5.6644 27.1904C5.72574 26.9939 5.84127 26.7974 5.84127 26.6014C5.83055 19.626 9.62349 15.2649 15.6949 12.6678C20.6158 10.5631 25.8178 10.5721 31.0216 11.0884L31.7374 11.9805C31.0436 12.3414 30.1187 12.5284 29.6953 13.0918C27.6485 15.8163 25.7166 18.629 23.7894 21.4417C23.31 22.1415 23.0248 22.9711 22.6109 23.7191C19.2949 29.7119 15.7605 31.3877 8.18171 30.1621C10.3763 27.3179 12.3832 24.7178 14.4866 21.992L14.486 21.9926Z" fill="white"/>
<path d="M5.85352 38.0497C7.23039 34.286 8.50364 33.3897 11.9452 33.5582C18.9719 33.9025 23.3663 30.1976 26.1433 24.2012C28.2878 19.5704 31.1833 15.5916 35.2943 12.5419C36.022 12.0023 36.8319 11.5736 37.6037 11.0936C42.8569 19.6603 39.1021 32.3654 29.9696 37.3208C23.6022 40.7761 17.1651 40.9297 10.7339 37.512C9.01043 36.596 7.37451 35.2198 5.85352 38.0503V38.0497Z" fill="#FFE175"/>
<path d="M52.304 31V8.504H56.656V31H52.304ZM55.504 31V27.16H67.952V31H55.504ZM55.504 21.368V17.656H66.832V21.368H55.504ZM55.504 12.344V8.504H67.792V12.344H55.504ZM78.2145 31.32C76.6358 31.32 75.2172 30.968 73.9585 30.264C72.6998 29.56 71.7078 28.6 70.9825 27.384C70.2572 26.168 69.8945 24.8027 69.8945 23.288C69.8945 21.752 70.2572 20.376 70.9825 19.16C71.7078 17.944 72.6998 16.984 73.9585 16.28C75.2385 15.5547 76.6572 15.192 78.2145 15.192C79.4305 15.192 80.5505 15.416 81.5745 15.864C82.5985 16.312 83.4838 16.952 84.2305 17.784L81.5425 20.504C81.1372 20.056 80.6465 19.7147 80.0705 19.48C79.5158 19.2453 78.8972 19.128 78.2145 19.128C77.4465 19.128 76.7532 19.3093 76.1345 19.672C75.5372 20.0133 75.0572 20.4933 74.6945 21.112C74.3532 21.7093 74.1825 22.424 74.1825 23.256C74.1825 24.0667 74.3532 24.792 74.6945 25.432C75.0572 26.0507 75.5372 26.5413 76.1345 26.904C76.7532 27.2453 77.4465 27.416 78.2145 27.416C78.9185 27.416 79.5478 27.2987 80.1025 27.064C80.6785 26.808 81.1692 26.4453 81.5745 25.976L84.2945 28.696C83.5052 29.5493 82.5985 30.2 81.5745 30.648C80.5505 31.096 79.4305 31.32 78.2145 31.32ZM93.5888 31.32C92.0314 31.32 90.6234 30.968 89.3648 30.264C88.1274 29.5387 87.1354 28.568 86.3888 27.352C85.6634 26.1147 85.3008 24.7387 85.3008 23.224C85.3008 21.7093 85.6634 20.3547 86.3888 19.16C87.1141 17.944 88.1061 16.984 89.3648 16.28C90.6234 15.5547 92.0208 15.192 93.5568 15.192C95.1354 15.192 96.5434 15.5547 97.7808 16.28C99.0394 16.984 100.031 17.944 100.757 19.16C101.482 20.3547 101.845 21.7093 101.845 23.224C101.845 24.7387 101.482 26.1147 100.757 27.352C100.031 28.568 99.0394 29.5387 97.7808 30.264C96.5434 30.968 95.1461 31.32 93.5888 31.32ZM93.5568 27.416C94.3461 27.416 95.0394 27.2453 95.6368 26.904C96.2554 26.5413 96.7248 26.0507 97.0448 25.432C97.3861 24.792 97.5568 24.0667 97.5568 23.256C97.5568 22.4453 97.3861 21.7307 97.0448 21.112C96.7034 20.4933 96.2341 20.0133 95.6368 19.672C95.0394 19.3093 94.3461 19.128 93.5568 19.128C92.7888 19.128 92.1061 19.3093 91.5088 19.672C90.9114 20.0133 90.4421 20.4933 90.1008 21.112C89.7594 21.7307 89.5888 22.4453 89.5888 23.256C89.5888 24.0667 89.7594 24.792 90.1008 25.432C90.4421 26.0507 90.9114 26.5413 91.5088 26.904C92.1061 27.2453 92.7888 27.416 93.5568 27.416ZM114.944 31V22.136C114.944 21.2187 114.656 20.472 114.08 19.896C113.504 19.32 112.757 19.032 111.84 19.032C111.242 19.032 110.709 19.16 110.24 19.416C109.77 19.672 109.397 20.0347 109.12 20.504C108.864 20.9733 108.736 21.5173 108.736 22.136L107.104 21.304C107.104 20.088 107.36 19.032 107.872 18.136C108.405 17.2187 109.13 16.504 110.048 15.992C110.986 15.48 112.042 15.224 113.216 15.224C114.346 15.224 115.36 15.512 116.256 16.088C117.152 16.6427 117.856 17.3787 118.368 18.296C118.88 19.192 119.135 20.1627 119.135 21.208V31H114.944ZM104.544 31V15.544H108.736V31H104.544ZM129.904 31.32C128.283 31.32 126.843 30.9787 125.584 30.296C124.326 29.592 123.323 28.632 122.576 27.416C121.851 26.2 121.488 24.8133 121.488 23.256C121.488 21.72 121.84 20.3547 122.544 19.16C123.27 17.944 124.251 16.984 125.488 16.28C126.726 15.5547 128.102 15.192 129.616 15.192C131.11 15.192 132.422 15.5333 133.552 16.216C134.704 16.8773 135.6 17.7947 136.24 18.968C136.902 20.12 137.232 21.432 137.232 22.904C137.232 23.1813 137.211 23.4693 137.168 23.768C137.147 24.0453 137.094 24.3653 137.008 24.728L124.016 24.76V21.624L135.056 21.592L133.36 22.904C133.318 21.9867 133.147 21.2187 132.848 20.6C132.571 19.9813 132.155 19.512 131.6 19.192C131.067 18.8507 130.406 18.68 129.616 18.68C128.784 18.68 128.059 18.872 127.44 19.256C126.822 19.6187 126.342 20.1413 126 20.824C125.68 21.4853 125.52 22.2747 125.52 23.192C125.52 24.1307 125.691 24.952 126.032 25.656C126.395 26.3387 126.907 26.872 127.568 27.256C128.23 27.6187 128.998 27.8 129.872 27.8C130.662 27.8 131.376 27.672 132.016 27.416C132.656 27.1387 133.211 26.7333 133.68 26.2L136.144 28.664C135.398 29.5387 134.48 30.2 133.392 30.648C132.326 31.096 131.163 31.32 129.904 31.32ZM145.137 31.352C144.262 31.352 143.398 31.2347 142.545 31C141.713 30.7653 140.945 30.4453 140.241 30.04C139.537 29.6133 138.929 29.1013 138.417 28.504L140.913 25.976C141.446 26.5733 142.065 27.0213 142.769 27.32C143.473 27.6187 144.251 27.768 145.105 27.768C145.787 27.768 146.299 27.672 146.641 27.48C147.003 27.288 147.185 27 147.185 26.616C147.185 26.1893 146.993 25.8587 146.609 25.624C146.246 25.3893 145.766 25.1973 145.169 25.048C144.571 24.8773 143.942 24.696 143.281 24.504C142.641 24.2907 142.022 24.024 141.425 23.704C140.827 23.3627 140.337 22.904 139.953 22.328C139.59 21.7307 139.409 20.9627 139.409 20.024C139.409 19.0427 139.643 18.1893 140.113 17.464C140.603 16.7387 141.297 16.1733 142.193 15.768C143.089 15.3627 144.145 15.16 145.361 15.16C146.641 15.16 147.793 15.384 148.817 15.832C149.862 16.28 150.726 16.952 151.409 17.848L148.881 20.376C148.411 19.8 147.878 19.384 147.281 19.128C146.705 18.872 146.075 18.744 145.393 18.744C144.774 18.744 144.294 18.84 143.953 19.032C143.633 19.224 143.473 19.4907 143.473 19.832C143.473 20.216 143.654 20.5147 144.017 20.728C144.401 20.9413 144.891 21.1333 145.489 21.304C146.086 21.4533 146.705 21.6347 147.345 21.848C148.006 22.04 148.625 22.3173 149.201 22.68C149.798 23.0427 150.278 23.5227 150.641 24.12C151.025 24.7173 151.217 25.4853 151.217 26.424C151.217 27.9387 150.673 29.144 149.585 30.04C148.497 30.9147 147.014 31.352 145.137 31.352ZM156.316 31V9.112H160.508V31H156.316ZM152.7 19.224V15.544H164.124V19.224H152.7Z" fill="white"/>
</svg>
