<svg width="102" height="26" viewBox="0 0 102 26" fill="none" xmlns="http://www.w3.org/2000/svg">
<path d="M10 17.989L14.3452 16.8836L16.1607 22.5L10 17.989ZM20 10.7296H12.3512L10 3.5L7.64881 10.7296H0L6.19048 15.2107L3.83928 22.4402L10.0298 17.9591L13.8393 15.2107L20 10.7296Z" fill="#004540"/>
<path d="M24.527 7.1H34.523V9.293H30.834V19H28.216V9.293H24.527V7.1ZM36.0086 10.5H38.2696L38.4396 11.622C38.655 11.3273 38.91 11.0837 39.2046 10.891C39.5106 10.687 39.845 10.551 40.2076 10.483C40.5816 10.415 40.9896 10.4207 41.4316 10.5V12.846C41.137 12.744 40.8196 12.7157 40.4796 12.761C40.1396 12.795 39.8166 12.9083 39.5106 13.101C39.2046 13.2823 38.9553 13.5543 38.7626 13.917C38.5813 14.2797 38.4906 14.7387 38.4906 15.294V19H36.0086V10.5ZM50.3835 19H48.1225L47.9525 18.065C47.6691 18.3823 47.3348 18.6373 46.9495 18.83C46.5755 19.0227 46.1618 19.119 45.7085 19.119C45.0738 19.119 44.5241 18.9773 44.0595 18.694C43.5948 18.4107 43.2321 17.997 42.9715 17.453C42.7108 16.8977 42.5805 16.2347 42.5805 15.464V10.5H45.0625V15.158C45.0625 15.7247 45.1758 16.1553 45.4025 16.45C45.6405 16.7447 45.9975 16.892 46.4735 16.892C46.9268 16.892 47.2781 16.739 47.5275 16.433C47.7768 16.127 47.9015 15.6907 47.9015 15.124V10.5H50.3835V19ZM54.1482 16.212C54.2048 16.4273 54.2955 16.603 54.4202 16.739C54.5562 16.8637 54.7148 16.9543 54.8962 17.011C55.0775 17.0677 55.2645 17.096 55.4572 17.096C55.8085 17.096 56.0805 17.0337 56.2732 16.909C56.4658 16.7843 56.5622 16.6257 56.5622 16.433C56.5622 16.2403 56.4885 16.0987 56.3412 16.008C56.2052 15.906 56.0238 15.8267 55.7972 15.77C55.5705 15.702 55.3325 15.6397 55.0832 15.583C54.7998 15.515 54.4825 15.4357 54.1312 15.345C53.7798 15.243 53.4455 15.107 53.1282 14.937C52.8108 14.7557 52.5502 14.5177 52.3462 14.223C52.1422 13.917 52.0402 13.5373 52.0402 13.084C52.0402 12.5627 52.1818 12.098 52.4652 11.69C52.7485 11.282 53.1508 10.9647 53.6722 10.738C54.1935 10.5 54.8112 10.381 55.5252 10.381C56.4092 10.381 57.1288 10.5623 57.6842 10.925C58.2395 11.2877 58.6305 11.7977 58.8572 12.455L56.6982 12.999C56.6415 12.8517 56.5565 12.7383 56.4432 12.659C56.3298 12.5683 56.1882 12.506 56.0182 12.472C55.8595 12.4267 55.7008 12.404 55.5422 12.404C55.2475 12.404 55.0152 12.4607 54.8452 12.574C54.6752 12.6873 54.5902 12.829 54.5902 12.999C54.5902 13.1123 54.6242 13.2087 54.6922 13.288C54.7715 13.3673 54.8735 13.4297 54.9982 13.475C55.1342 13.5203 55.2872 13.56 55.4572 13.594C55.6385 13.628 55.8312 13.6733 56.0352 13.73C56.3752 13.8093 56.7208 13.9057 57.0722 14.019C57.4348 14.1323 57.7692 14.2853 58.0752 14.478C58.3925 14.6593 58.6418 14.9087 58.8232 15.226C59.0158 15.532 59.1178 15.9287 59.1292 16.416C59.1292 16.9147 58.9875 17.3737 58.7042 17.793C58.4208 18.201 58.0072 18.524 57.4632 18.762C56.9192 19 56.2562 19.119 55.4742 19.119C54.5335 19.119 53.7458 18.9263 53.1112 18.541C52.4765 18.1557 52.0742 17.5607 51.9042 16.756L54.1482 16.212ZM61.2918 10.5V8.12H63.8248V10.5H65.5758V12.693H63.8248V15.753C63.8248 16.1383 63.9098 16.4103 64.0798 16.569C64.2611 16.7277 64.4878 16.8127 64.7598 16.824C65.0318 16.824 65.3038 16.8013 65.5758 16.756V18.915C64.9978 19.017 64.4481 19.0453 63.9268 19C63.4054 18.966 62.9464 18.83 62.5498 18.592C62.1644 18.354 61.8584 18.0027 61.6318 17.538C61.4051 17.0733 61.2918 16.4783 61.2918 15.753V12.693H60.1018V10.5H61.2918ZM69.1126 17.691L69.4526 17.674V22.4H66.9706V10.5H69.2146L69.3676 11.571C69.5829 11.2423 69.9116 10.9647 70.3536 10.738C70.7956 10.5 71.2942 10.381 71.8496 10.381C72.5636 10.381 73.1982 10.5623 73.7536 10.925C74.3089 11.2763 74.7452 11.7807 75.0626 12.438C75.3912 13.084 75.5556 13.8547 75.5556 14.75C75.5556 15.634 75.3969 16.4047 75.0796 17.062C74.7622 17.7193 74.3202 18.2293 73.7536 18.592C73.1982 18.9433 72.5636 19.119 71.8496 19.119C71.1922 19.119 70.6312 18.9773 70.1666 18.694C69.7132 18.4107 69.3619 18.0763 69.1126 17.691ZM72.8866 14.75C72.8866 14.1267 72.7279 13.628 72.4106 13.254C72.0932 12.8687 71.6796 12.676 71.1696 12.676C70.8522 12.676 70.5632 12.7553 70.3026 12.914C70.0419 13.0727 69.8322 13.305 69.6736 13.611C69.5262 13.917 69.4526 14.2967 69.4526 14.75C69.4526 15.192 69.5262 15.5717 69.6736 15.889C69.8322 16.195 70.0419 16.433 70.3026 16.603C70.5632 16.7617 70.8522 16.841 71.1696 16.841C71.6796 16.841 72.0932 16.6483 72.4106 16.263C72.7279 15.8777 72.8866 15.3733 72.8866 14.75ZM77.3873 10.5H79.8693V19H77.3873V10.5ZM78.6283 9.633C78.1636 9.633 77.784 9.497 77.4893 9.225C77.206 8.94167 77.0643 8.60167 77.0643 8.205C77.0643 7.797 77.206 7.457 77.4893 7.185C77.784 6.90167 78.1636 6.76 78.6283 6.76C79.0816 6.76 79.45 6.90167 79.7333 7.185C80.028 7.457 80.1753 7.797 80.1753 8.205C80.1753 8.60167 80.028 8.94167 79.7333 9.225C79.45 9.497 79.0816 9.633 78.6283 9.633ZM82.0614 6.76H84.5434V19H82.0614V6.76ZM90.3716 19.119C89.5443 19.119 88.8019 18.9433 88.1446 18.592C87.4873 18.2407 86.9716 17.7363 86.5976 17.079C86.2349 16.4217 86.0536 15.6453 86.0536 14.75C86.0536 13.8547 86.2406 13.084 86.6146 12.438C86.9999 11.7807 87.5213 11.2763 88.1786 10.925C88.8473 10.5623 89.5896 10.381 90.4056 10.381C91.2443 10.381 91.9923 10.5623 92.6496 10.925C93.3183 11.2763 93.8453 11.7807 94.2306 12.438C94.6159 13.084 94.8086 13.849 94.8086 14.733C94.8086 15.6397 94.6103 16.4217 94.2136 17.079C93.8283 17.7363 93.2956 18.2407 92.6156 18.592C91.9469 18.9433 91.1989 19.119 90.3716 19.119ZM90.3716 16.875C90.6663 16.875 90.9496 16.7957 91.2216 16.637C91.4936 16.4783 91.7089 16.246 91.8676 15.94C92.0376 15.6227 92.1226 15.226 92.1226 14.75C92.1226 14.274 92.0376 13.883 91.8676 13.577C91.7089 13.2597 91.4993 13.0217 91.2386 12.863C90.9779 12.7043 90.7003 12.625 90.4056 12.625C90.0883 12.625 89.8049 12.7043 89.5556 12.863C89.3063 13.0217 89.1023 13.2597 88.9436 13.577C88.7963 13.883 88.7226 14.274 88.7226 14.75C88.7226 15.226 88.7963 15.6227 88.9436 15.94C89.0909 16.246 89.2893 16.4783 89.5386 16.637C89.7879 16.7957 90.0656 16.875 90.3716 16.875ZM96.9685 10.5V8.12H99.5015V10.5H101.253V12.693H99.5015V15.753C99.5015 16.1383 99.5865 16.4103 99.7565 16.569C99.9378 16.7277 100.165 16.8127 100.437 16.824C100.709 16.824 100.981 16.8013 101.253 16.756V18.915C100.675 19.017 100.125 19.0453 99.6035 19C99.0822 18.966 98.6232 18.83 98.2265 18.592C97.8412 18.354 97.5352 18.0027 97.3085 17.538C97.0818 17.0733 96.9685 16.4783 96.9685 15.753V12.693H95.7785V10.5H96.9685Z" fill="#004540"/>
</svg>
