<svg width="44" height="44" viewBox="0 0 44 44" fill="none" xmlns="http://www.w3.org/2000/svg">
<path d="M1.1579 44C0.586675 44 0.108082 43.5908 0.0154508 43.0273C-0.0771802 42.4638 0.254748 41.9235 0.795095 41.7459C4.33823 40.5649 6.07506 38.5733 6.55365 37.2147C2.43929 33.9572 1.22974e-05 28.9629 1.22974e-05 23.6906C1.22974e-05 14.196 7.72697 6.46899 17.2216 6.46899C19.8925 6.46899 22.4399 7.06338 24.8019 8.22126C25.3732 8.50687 25.6125 9.20161 25.3269 9.77283C25.0412 10.3441 24.3465 10.5834 23.7753 10.2977C21.7297 9.29424 19.522 8.77705 17.2139 8.77705C8.99293 8.77705 2.30807 15.4619 2.30807 23.6829C2.30807 28.4688 4.62384 32.9923 8.51434 35.7867C8.81539 36.0028 8.99293 36.3502 8.99293 36.7284V36.8519C8.85399 38.3032 7.88908 40.0323 6.0519 41.5221C21.9844 40.4877 31.6103 34.266 32.1121 24.4471C32.1429 23.8064 32.6679 23.3124 33.324 23.351C33.9647 23.3819 34.451 23.9299 34.4201 24.5629C33.8026 36.7284 21.3669 43.9922 1.15018 43.9922L1.1579 44Z" fill="#FFE175"/>
<path d="M8.80061 27.1487C6.93256 27.1487 5.41187 25.628 5.41187 23.76C5.41187 21.8919 6.93256 20.3712 8.80061 20.3712C10.6687 20.3712 12.1894 21.8919 12.1894 23.76C12.1894 25.628 10.6687 27.1487 8.80061 27.1487ZM8.80061 22.687C8.20623 22.687 7.72764 23.1656 7.72764 23.76C7.72764 24.3543 8.20623 24.8329 8.80061 24.8329C9.395 24.8329 9.87359 24.3543 9.87359 23.76C9.87359 23.1656 9.395 22.687 8.80061 22.687Z" fill="#004540"/>
<path d="M17.2289 27.1487C15.3608 27.1487 13.8401 25.628 13.8401 23.76C13.8401 21.8919 15.3608 20.3712 17.2289 20.3712C19.097 20.3712 20.6176 21.8919 20.6176 23.76C20.6176 25.628 19.097 27.1487 17.2289 27.1487ZM17.2289 22.687C16.6345 22.687 16.1559 23.1656 16.1559 23.76C16.1559 24.3543 16.6345 24.8329 17.2289 24.8329C17.8233 24.8329 18.3019 24.3543 18.3019 23.76C18.3019 23.1656 17.8233 22.687 17.2289 22.687Z" fill="#004540"/>
<path d="M25.6531 27.1487C23.785 27.1487 22.2643 25.628 22.2643 23.76C22.2643 21.8919 23.785 20.3712 25.6531 20.3712C27.5211 20.3712 29.0418 21.8919 29.0418 23.76C29.0418 25.628 27.5211 27.1487 25.6531 27.1487ZM25.6531 22.687C25.0587 22.687 24.5801 23.1656 24.5801 23.76C24.5801 24.3543 25.0587 24.8329 25.6531 24.8329C26.2475 24.8329 26.7261 24.3543 26.7261 23.76C26.7261 23.1656 26.2475 22.687 25.6531 22.687Z" fill="#004540"/>
<path d="M33.5327 -0.000366211C27.7587 -0.000366211 23.0577 4.69293 23.0577 10.4669C23.0577 16.2409 27.7587 20.9419 33.5327 20.9419C39.3067 20.9419 44 16.2409 44 10.4669C44 4.69293 39.3067 -0.000366211 33.5327 -0.000366211ZM38.4344 8.72238L33.3011 13.8557C33.0773 14.0795 32.7839 14.1953 32.4829 14.1953C32.1818 14.1953 31.8962 14.0795 31.6646 13.8557L28.6233 10.8143C28.1678 10.3589 28.1678 9.62553 28.6233 9.1701C29.071 8.72238 29.8043 8.72238 30.2597 9.1701L32.4829 11.401L36.7979 7.0859C37.2534 6.63047 37.9867 6.63047 38.4344 7.0859C38.8899 7.53362 38.8899 8.26694 38.4344 8.72238Z" fill="#FFE175"/>
</svg>
