<svg width="43" height="64" viewBox="0 0 43 64" fill="none" xmlns="http://www.w3.org/2000/svg">
<path d="M36.3106 52.6433H26.409C23.3551 49.5495 21.6373 45.539 21.6373 41.2875C21.6373 33.0146 26.1614 26.5665 33.1252 24.479L27.6032 21.3357L20.1049 25.604C17.7684 28.6327 16.3229 32.3567 15.9299 36.3931C15.1825 43.737 20.7552 49.9841 23.579 52.6433H20.8158C17.6352 49.2643 13.2647 43.2475 13.9825 36.1995C14.4047 31.8577 15.9567 27.8373 18.4599 24.5403L20.2261 15.9753L14.1643 10.4507C7.61825 13.9862 4.64942 23.9884 6.94943 35.1318C8.51567 42.6777 12.4382 49.181 17.4831 52.6433H6.67416L0.494141 63.5044H42.4906L36.3106 52.6433ZM13.538 61.5318L11.2911 60.2526L9.04382 61.5318L9.56587 58.9994L7.65479 57.2575L10.2249 56.9714L11.2911 54.6158L12.357 56.9714L14.9269 57.2575L13.016 58.9994L13.538 61.5318ZM23.9771 61.5318L21.7298 60.2526L19.4828 61.5318L20.0048 58.9994L18.0937 57.2575L20.6638 56.9714L21.7298 54.6158L22.7959 56.9714L25.3658 57.2575L23.4547 58.9994L23.9771 61.5318ZM33.941 61.5318L31.694 60.2526L29.4467 61.5318L29.9688 58.9994L28.058 57.2575L30.6277 56.9714L31.694 54.6158L32.7602 56.9714L35.3297 57.2575L33.4189 58.9994L33.941 61.5318Z" fill="#004540"/>
<path d="M23.8141 9.18497L16.5684 9.99163L21.9566 14.9024C22.2117 15.1351 22.3254 15.4854 22.2557 15.8238L20.7834 22.9639L27.1192 19.3573C27.2692 19.2717 27.436 19.2292 27.6032 19.2292C27.7705 19.2292 27.9373 19.2717 28.0874 19.3573L34.4232 22.9639L32.9508 15.8238C32.881 15.4854 32.9948 15.1351 33.25 14.9024L38.6382 9.99163L31.3925 9.18497C31.0493 9.14676 30.7515 8.93073 30.6092 8.61587L27.6032 1.97412L24.5974 8.61587C24.4549 8.93073 24.1572 9.14676 23.8141 9.18497Z" fill="#FFE175"/>
<path d="M13.8956 8.37015C13.9035 8.36642 13.9121 8.3677 13.92 8.36416C14.0089 8.32535 14.1035 8.29804 14.2029 8.28694L14.2703 8.27948C14.2718 8.27938 14.2732 8.27908 14.2747 8.27898L23.0443 7.30297L26.0641 0.630371C22.997 0.779697 15.7456 1.71966 10.8159 7.10727C8.36608 9.78491 6.79236 13.212 6.08984 17.3449C7.72466 13.2078 10.3832 10.0143 13.8956 8.37015Z" fill="#004540"/>
</svg>
