<svg width="58" height="70" viewBox="0 0 58 70" fill="none" xmlns="http://www.w3.org/2000/svg">
<path d="M31.0278 1.18857L10.2967 41.4711C10.1965 41.6657 10.3379 41.8972 10.5568 41.8972H23.3463C23.519 41.8972 23.6542 42.0463 23.6373 42.2182L21.0441 68.6489C21.0124 68.9717 21.4516 69.0984 21.5966 68.8082L42.5013 26.9953C42.5985 26.8009 42.4571 26.5722 42.2397 26.5722H29.7885C29.6174 26.5722 29.4828 26.4259 29.4971 26.2554L31.5792 1.34676C31.6058 1.02777 31.1742 0.90399 31.0278 1.18857Z" fill="#FEE97D"/>
<path d="M31.5792 1.34676C31.6058 1.02777 31.1742 0.90399 31.0278 1.18857L10.2967 41.4711C10.1965 41.6657 10.3379 41.8972 10.5568 41.8972H23.3463C23.519 41.8972 23.6542 42.0463 23.6373 42.2182L21.0441 68.6489C21.0124 68.9717 21.4516 69.0984 21.5966 68.8082L27.4181 57.1641L29.3108 37.874C29.3276 37.7021 29.1926 37.5531 29.0198 37.5531H20.5122C19.2901 37.5531 18.5011 36.2597 19.0604 35.1731L30.6309 12.6904L31.5792 1.34676Z" fill="#004540"/>
<path d="M47.7814 12.51C47.3243 12.1732 46.6808 12.2708 46.3439 12.7278L43.7495 16.2487C43.4127 16.7059 43.5103 17.3495 43.9673 17.6863C44.151 17.8216 44.3646 17.8867 44.5764 17.8867C44.8919 17.8867 45.2033 17.7419 45.4049 17.4685L47.9993 13.9476C48.3361 13.4906 48.2385 12.847 47.7814 12.51Z" fill="white"/>
<path d="M45.4047 52.845C45.0678 52.3879 44.4244 52.2905 43.9671 52.6272C43.5101 52.9641 43.4125 53.6075 43.7493 54.0647L46.3437 57.5856C46.5453 57.8591 46.8566 58.0038 47.1722 58.0038C47.3839 58.0038 47.5977 57.9386 47.7812 57.8034C48.2382 57.4665 48.3358 56.823 47.999 56.3659L45.4047 52.845Z" fill="white"/>
<path d="M56.3448 34.1289H52.7312C52.1633 34.1289 51.7031 34.5892 51.7031 35.157C51.7031 35.7248 52.1633 36.1851 52.7312 36.1851H56.3448C56.9127 36.1851 57.3729 35.7248 57.3729 35.157C57.3729 34.5892 56.9126 34.1289 56.3448 34.1289Z" fill="white"/>
<path d="M11.9667 17.4685C12.1683 17.7419 12.4796 17.8867 12.7952 17.8867C13.007 17.8867 13.2207 17.8214 13.4043 17.6863C13.8613 17.3493 13.9589 16.7059 13.6221 16.2487L11.0277 12.7278C10.6909 12.2708 10.0473 12.1732 9.59015 12.51C9.13312 12.847 9.03552 13.4904 9.37233 13.9476L11.9667 17.4685Z" fill="white"/>
<path d="M13.4043 52.6272C12.9473 52.2905 12.3037 52.3878 11.9667 52.845L9.37237 56.3659C9.03556 56.8231 9.13303 57.4667 9.59019 57.8035C9.77387 57.9388 9.98744 58.0039 10.1992 58.0039C10.5148 58.0039 10.8262 57.8591 11.0277 57.5856L13.6221 54.0647C13.9589 53.6076 13.8615 52.964 13.4043 52.6272Z" fill="white"/>
<path d="M4.64165 34.1289H1.0281C0.460313 34.1289 0 34.5892 0 35.157C0 35.7248 0.460313 36.1851 1.0281 36.1851H4.64165C5.20944 36.1851 5.66975 35.7248 5.66975 35.157C5.66975 34.5892 5.20944 34.1289 4.64165 34.1289Z" fill="white"/>
<path d="M28.9027 54.193C28.3951 53.9392 27.7773 54.145 27.5234 54.6527L22.455 64.7906L24.6599 42.318C24.6962 41.9479 24.5738 41.5777 24.3239 41.302C24.0742 41.0266 23.7176 40.8685 23.3457 40.8685H11.7621L22.4181 20.1629C22.678 19.6581 22.4794 19.0381 21.9745 18.7783C21.4697 18.5184 20.8498 18.717 20.5899 19.2219L9.38198 41.0001C9.16965 41.4129 9.18733 41.8958 9.429 42.2921C9.67081 42.6883 10.0922 42.9249 10.5563 42.9249H22.5345L20.0203 68.5481C19.9573 69.1918 20.3471 69.7666 20.9686 69.9457C21.0946 69.9821 21.2211 69.9996 21.3453 69.9996C21.8338 69.9996 22.2849 69.7287 22.5157 69.2675L29.3626 55.5724C29.6165 55.0645 29.4106 54.447 28.9027 54.193Z" fill="white"/>
<path d="M23.0578 16.6756C23.5628 16.9356 24.1827 16.7369 24.4425 16.232L30.2461 4.95487L28.4727 26.1701C28.4422 26.5371 28.5676 26.903 28.8169 27.1738C29.0663 27.4448 29.4205 27.6002 29.7887 27.6002H33.7407C34.3086 27.6002 34.7688 27.1398 34.7688 26.5721C34.7688 26.0043 34.3086 25.544 33.7407 25.544H30.5884L32.6039 1.43261C32.6574 0.796425 32.266 0.229189 31.6524 0.0530418C31.0391 -0.123243 30.4061 0.150368 30.114 0.718015L22.6142 15.291C22.3543 15.7958 22.553 16.4158 23.0578 16.6756Z" fill="white"/>
<path d="M43.3619 26.1701C43.1194 25.7779 42.6997 25.5439 42.2387 25.5439H38.121C37.553 25.5439 37.0929 26.0043 37.0929 26.572C37.0929 27.1398 37.553 27.6001 38.121 27.6001H41.0483L29.4858 50.7271C29.2318 51.235 29.4376 51.8525 29.9455 52.1066C30.093 52.1803 30.25 52.2153 30.4045 52.2153C30.7816 52.2153 31.1447 52.0069 31.3248 51.6468L43.4198 27.455C43.6259 27.0425 43.6043 26.5623 43.3619 26.1701Z" fill="white"/>
</svg>
