<svg width="22" height="22" viewBox="0 0 22 22" fill="none" xmlns="http://www.w3.org/2000/svg">
<path d="M4.40625 0.504883C4.60775 0.517483 4.80548 0.562144 4.99219 0.636719L5.1748 0.720703C5.35327 0.814955 5.51476 0.937391 5.6543 1.08203L5.78613 1.2334L8.25488 4.4043C8.56807 4.80705 8.70358 5.31691 8.6377 5.81738L8.59668 6.03027L7.84473 9.04199C7.79995 9.22161 7.79055 9.40771 7.81641 9.58984L7.85449 9.77051C7.90392 9.94908 7.98733 10.1158 8.09961 10.2617L8.2207 10.4004H8.22168L11.5996 13.7793C11.7308 13.9104 11.8858 14.0144 12.0557 14.0859L12.2305 14.1465C12.4092 14.1959 12.5953 14.2099 12.7783 14.1885L12.96 14.1553L15.9697 13.4033C16.249 13.3335 16.5406 13.3283 16.8223 13.3877C17.0336 13.4323 17.2354 13.5121 17.4189 13.624L17.5957 13.7461L20.7666 16.2129C21.6126 16.8715 21.7376 18.0845 21.085 18.8975L20.9443 19.0547H20.9434L19.5225 20.4766C18.6806 21.3184 17.4644 21.7025 16.3145 21.3945L16.0859 21.3232C12.7508 20.1497 9.70367 18.2862 7.1416 15.8574L6.63574 15.3643L6.63477 15.3633L6.1416 14.8574C3.87494 12.4664 2.10063 9.65297 0.919922 6.57715L0.675781 5.91406C0.276015 4.77614 0.582686 3.54112 1.3623 2.65137L1.52441 2.47754L2.94629 1.05664L2.94531 1.05566C3.08811 0.913111 3.25322 0.795565 3.43262 0.705078L3.61621 0.624023C3.80511 0.552673 4.00419 0.51168 4.20508 0.50293L4.40625 0.504883ZM15.8125 0.5H21.3125C21.3373 0.500003 21.3613 0.505381 21.3838 0.514648L21.4453 0.554688C21.4805 0.589848 21.5 0.637782 21.5 0.6875V6.1875C21.5 6.23721 21.4805 6.28516 21.4453 6.32031C21.4102 6.35547 21.3622 6.37499 21.3125 6.375C21.2628 6.375 21.2148 6.35546 21.1797 6.32031C21.1445 6.28516 21.125 6.23722 21.125 6.1875V1.13965L20.2715 1.99316L14.5713 7.69531C14.536 7.73064 14.4874 7.75098 14.4375 7.75098C14.4125 7.75095 14.3879 7.74578 14.3652 7.73633L14.3047 7.69531C14.2694 7.66001 14.249 7.61241 14.249 7.5625C14.249 7.53748 14.2543 7.5129 14.2637 7.49023L14.3047 7.42969L20.0068 1.72852L20.8604 0.875H15.8125C15.7628 0.87496 15.7148 0.855438 15.6797 0.820312C15.6446 0.78516 15.625 0.73719 15.625 0.6875C15.625 0.662756 15.6304 0.638653 15.6396 0.616211L15.6797 0.554688C15.7148 0.519562 15.7628 0.50004 15.8125 0.5Z" fill="#004540" stroke="#FFE175"/>
</svg>
