<svg width="18" height="18" viewBox="0 0 18 18" fill="none" xmlns="http://www.w3.org/2000/svg">
<path d="M9.70312 8.08594H8.29688V9.49219H9.70312V8.08594Z" fill="#868681"/>
<path d="M15.8906 1.40625H15.0469V0H13.6406V1.40625H4.35938V0H2.95312V1.40625H2.10938C0.946266 1.40625 0 2.35252 0 3.51562V15.8906C0 17.0537 0.946266 18 2.10938 18H6.78516H6.89062H9.34319C8.85705 17.5987 8.43363 17.1242 8.08942 16.5938H6.89062H6.78516H2.10938C1.72167 16.5938 1.40625 16.2783 1.40625 15.8906V6.60938H16.5938V8.01562V8.08594V8.08942C17.1242 8.43363 17.5987 8.85709 18 9.34319V8.08594V8.01562V3.51562C18 2.35252 17.0537 1.40625 15.8906 1.40625ZM16.5938 5.20312H1.40625V3.51562C1.40625 3.12792 1.72167 2.8125 2.10938 2.8125H2.95312V4.21875H4.35938V2.8125H13.6406V4.21875H15.0469V2.8125H15.8906C16.2783 2.8125 16.5938 3.12792 16.5938 3.51562V5.20312Z" fill="#868681"/>
<path d="M13.2539 8.50781C10.6369 8.50781 8.50781 10.6369 8.50781 13.2539C8.50781 15.8709 10.6369 18 13.2539 18C15.8709 18 18 15.8709 18 13.2539C18 10.6369 15.8709 8.50781 13.2539 8.50781ZM13.2539 16.5938C11.4123 16.5938 9.91406 15.0955 9.91406 13.2539C9.91406 11.4123 11.4123 9.91406 13.2539 9.91406C15.0955 9.91406 16.5938 11.4123 16.5938 13.2539C16.5938 15.0955 15.0955 16.5938 13.2539 16.5938Z" fill="#868681"/>
<path d="M13.9219 10.8984H12.5156V13.957H15.1172V12.5508H13.9219V10.8984Z" fill="#868681"/>
<path d="M6.89062 10.8984H5.48438V12.3047H6.89062V10.8984Z" fill="#868681"/>
<path d="M4.07812 10.8984H2.67188V12.3047H4.07812V10.8984Z" fill="#868681"/>
<path d="M4.07812 8.08594H2.67188V9.49219H4.07812V8.08594Z" fill="#868681"/>
<path d="M4.07812 13.7109H2.67188V15.1172H4.07812V13.7109Z" fill="#868681"/>
<path d="M6.89062 8.08594H5.48438V9.49219H6.89062V8.08594Z" fill="#868681"/>
<path d="M6.89062 13.7109H5.48438V15.1172H6.89062V13.7109Z" fill="#868681"/>
</svg>
