<svg width="34" height="30" viewBox="0 0 34 30" fill="none" xmlns="http://www.w3.org/2000/svg">
<path d="M1.86764 25.2145H6.71659V28.1239C6.71659 28.6595 7.15079 29.0937 7.68637 29.0937H33.0302C33.5658 29.0937 34 28.6595 34 28.1239V2.90937C34 2.37379 33.5658 1.93958 33.0302 1.93958H28.1813V0.96979C28.1813 0.434207 27.7471 0 27.2115 0C26.6759 0 26.2417 0.434207 26.2417 0.96979V1.93958H21.3281V0.96979C21.3281 0.434207 20.8939 0 20.3583 0C19.8227 0 19.3885 0.434207 19.3885 0.96979V1.93958H14.5396V0.96979C14.5396 0.434207 14.1053 0 13.5698 0C13.0342 0 12.6 0.434207 12.6 0.96979V1.93958H7.68637C7.15079 1.93958 6.71659 2.37379 6.71659 2.90937V8.72811C6.71659 15.8755 3.74612 21.3739 1.24678 23.4998C0.933083 23.7611 0.816773 24.191 0.955711 24.5749C1.09478 24.9588 1.45929 25.2145 1.86764 25.2145ZM32.0604 27.1541H8.65616V25.2145H27.2115C27.4383 25.2145 27.658 25.135 27.8323 24.9897C28.9981 24.0187 30.804 21.7069 32.0604 18.7459V27.1541ZM8.65616 3.87916H12.6V4.84895C12.6 5.38453 13.0342 5.81874 13.5698 5.81874C14.1053 5.81874 14.5396 5.38453 14.5396 4.84895V3.87916H19.3885V4.84895C19.3885 5.38453 19.8227 5.81874 20.3583 5.81874C20.8939 5.81874 21.3281 5.38453 21.3281 4.84895V3.87916H26.2417V4.84895C26.2417 5.38453 26.6759 5.81874 27.2115 5.81874C27.7471 5.81874 28.1813 5.38453 28.1813 4.84895V3.87916H32.0604V7.75832H8.65616V3.87916ZM8.63955 9.69725H32.0432C31.8247 15.8493 29.4635 20.6897 26.8312 23.275H4.07352C7.05614 19.4746 8.47953 14.5263 8.63955 9.69725Z" fill="#868681"/>
</svg>
