<svg width="17" height="17" viewBox="0 0 17 17" fill="none" xmlns="http://www.w3.org/2000/svg">
<path d="M9.16406 7.63672H7.83594V8.96484H9.16406V7.63672Z" fill="#F8F7F0"/>
<path d="M15.0078 1.32812H14.2109V0H12.8828V1.32812H4.11719V0H2.78906V1.32812H1.99219C0.893695 1.32812 0 2.22182 0 3.32031V15.0078C0 16.1063 0.893695 17 1.99219 17H6.4082H6.50781H8.82413C8.365 16.621 7.9651 16.1729 7.64001 15.6719H6.50781H6.4082H1.99219C1.62602 15.6719 1.32812 15.374 1.32812 15.0078V6.24219H15.6719V7.57031V7.63672V7.64001C16.1728 7.9651 16.621 8.36503 17 8.82413V7.63672V7.57031V3.32031C17 2.22182 16.1063 1.32812 15.0078 1.32812ZM15.6719 4.91406H1.32812V3.32031C1.32812 2.95415 1.62602 2.65625 1.99219 2.65625H2.78906V3.98438H4.11719V2.65625H12.8828V3.98438H14.2109V2.65625H15.0078C15.374 2.65625 15.6719 2.95415 15.6719 3.32031V4.91406Z" fill="#F8F7F0"/>
<path d="M12.5176 8.03516C10.046 8.03516 8.03516 10.046 8.03516 12.5176C8.03516 14.9892 10.046 17 12.5176 17C14.9892 17 17 14.9892 17 12.5176C17 10.046 14.9892 8.03516 12.5176 8.03516ZM12.5176 15.6719C10.7783 15.6719 9.36328 14.2569 9.36328 12.5176C9.36328 10.7783 10.7783 9.36328 12.5176 9.36328C14.2569 9.36328 15.6719 10.7783 15.6719 12.5176C15.6719 14.2569 14.2569 15.6719 12.5176 15.6719Z" fill="#F8F7F0"/>
<path d="M13.1484 10.293H11.8203V13.1816H14.2773V11.8535H13.1484V10.293Z" fill="#F8F7F0"/>
<path d="M6.50781 10.293H5.17969V11.6211H6.50781V10.293Z" fill="#F8F7F0"/>
<path d="M3.85156 10.293H2.52344V11.6211H3.85156V10.293Z" fill="#F8F7F0"/>
<path d="M3.85156 7.63672H2.52344V8.96484H3.85156V7.63672Z" fill="#F8F7F0"/>
<path d="M3.85156 12.9492H2.52344V14.2773H3.85156V12.9492Z" fill="#F8F7F0"/>
<path d="M6.50781 7.63672H5.17969V8.96484H6.50781V7.63672Z" fill="#F8F7F0"/>
<path d="M6.50781 12.9492H5.17969V14.2773H6.50781V12.9492Z" fill="#F8F7F0"/>
</svg>
