<svg width="38" height="24" viewBox="0 0 38 24" fill="none" xmlns="http://www.w3.org/2000/svg">
<path d="M35.9293 15.0814H31.2749L26.5752 10.3814C25.755 9.56141 24.6648 9.10978 23.505 9.10978H23.1733C23.8273 8.23846 24.2152 7.15657 24.2152 5.98578C24.2152 3.1101 21.8757 0.770508 19 0.770508C16.1242 0.770508 13.7848 3.11003 13.7848 5.98578C13.7848 7.15657 14.1727 8.23846 14.8267 9.10978H14.495C13.3353 9.10978 12.245 9.56141 11.425 10.3814L6.7251 15.0814H2.07063C0.92892 15.0814 0 16.0103 0 17.1521C0 18.2939 0.92892 19.2227 2.07063 19.2227H7.58269C8.13577 19.2227 8.65574 19.0074 9.04688 18.6164L12.3705 15.2927V17.3178C12.3705 17.6253 12.6198 17.8744 12.9272 17.8744C13.2346 17.8744 13.4838 17.6253 13.4838 17.3178V14.8626C13.4838 14.483 13.2572 14.1438 12.9065 13.9986C12.5559 13.8533 12.1558 13.9329 11.8874 14.2013L8.25972 17.8291C8.07884 18.0099 7.83845 18.1094 7.58269 18.1094H2.07063C1.54271 18.1094 1.11328 17.6799 1.11328 17.152C1.11328 16.6242 1.54278 16.1947 2.07063 16.1947H6.79872C7.04847 16.1947 7.28329 16.0975 7.46001 15.9209L12.2122 11.1687C12.8219 10.5589 13.6326 10.2231 14.495 10.2231H15.9652C16.8208 10.8377 17.8685 11.201 19 11.201C20.1314 11.201 21.1791 10.8377 22.0347 10.2231H23.505C24.3673 10.2231 25.1781 10.5589 25.7878 11.1687L30.5401 15.921C30.7167 16.0975 30.9515 16.1948 31.2011 16.1948H35.9292C36.4571 16.1948 36.8866 16.6243 36.8866 17.1521C36.8866 17.68 36.4571 18.1095 35.9292 18.1095H30.4172C30.1615 18.1095 29.9209 18.0099 29.7402 17.8291L26.1126 14.2014C25.8441 13.933 25.4439 13.8533 25.0935 13.9987C24.7427 14.144 24.5162 14.4831 24.5162 14.8628V21.6273C24.5162 21.9465 24.2565 22.2062 23.9373 22.2062H14.0627C13.7435 22.2062 13.4838 21.9465 13.4838 21.6273V19.9154C13.4838 19.6079 13.2346 19.3588 12.9272 19.3588C12.6198 19.3588 12.3705 19.6079 12.3705 19.9154V21.6272C12.3705 22.5602 13.1296 23.3193 14.0627 23.3193H23.9374C24.8704 23.3193 25.6295 22.5602 25.6295 21.6272V15.2926L28.9532 18.6164C29.3444 19.0074 29.8643 19.2227 30.4174 19.2227H35.9294C37.0712 19.2227 38 18.2937 38 17.152C38 16.0103 37.071 15.0814 35.9293 15.0814ZM14.898 5.98578C14.898 3.72389 16.7382 1.88379 19 1.88379C21.2619 1.88379 23.102 3.72389 23.102 5.98578C23.102 8.24759 21.2619 10.0877 19 10.0877C16.7382 10.0877 14.898 8.24759 14.898 5.98578Z" fill="#004540"/>
<path d="M17.9531 5.27046V4.61133C17.9531 4.30384 17.7039 4.05469 17.3965 4.05469C17.0891 4.05469 16.8398 4.30384 16.8398 4.61133V5.27046C16.8398 5.57795 17.0891 5.8271 17.3965 5.8271C17.7039 5.8271 17.9531 5.57788 17.9531 5.27046Z" fill="#004540"/>
<path d="M20.6035 4.05469C20.296 4.05469 20.0469 4.30384 20.0469 4.61133V5.27046C20.0469 5.57795 20.296 5.8271 20.6035 5.8271C20.911 5.8271 21.1602 5.57795 21.1602 5.27046V4.61133C21.1602 4.30384 20.911 4.05469 20.6035 4.05469Z" fill="#004540"/>
<path d="M20.6768 6.93871C20.4138 6.77973 20.0715 6.86427 19.9126 7.12737C19.7167 7.45171 19.3753 7.64534 18.9992 7.64534C18.6232 7.64534 18.2818 7.45178 18.0859 7.12737C17.9269 6.8642 17.5848 6.77966 17.3217 6.93871C17.0586 7.09769 16.974 7.43983 17.133 7.70294C17.5322 8.36393 18.2299 8.75862 18.9993 8.75862C19.7687 8.75862 20.4664 8.364 20.8656 7.70294C21.0244 7.43983 20.9399 7.09769 20.6768 6.93871Z" fill="#004540"/>
<path d="M18.3443 20.522C18.5188 20.6967 18.751 20.7928 18.9979 20.7928C19.2448 20.7928 19.477 20.6966 19.6515 20.5221L22.5506 17.623C23.5506 16.623 23.5506 14.996 22.5506 13.9961C21.575 13.0205 20.0025 12.9969 18.9979 13.9248C17.9932 12.9968 16.4207 13.0203 15.4452 13.9961C14.4453 14.9961 14.4453 16.623 15.4452 17.623L18.3443 20.522ZM16.2325 14.7833C16.5065 14.5093 16.871 14.3583 17.2587 14.3583C17.6463 14.3583 18.0108 14.5092 18.2849 14.7834L18.6043 15.1028C18.8218 15.3201 19.1741 15.3201 19.3915 15.1028L19.7109 14.7834C20.2768 14.2175 21.1975 14.2175 21.7634 14.7834C22.3292 15.3492 22.3292 16.2699 21.7634 16.8357L18.9978 19.6012L16.2323 16.8358C15.6665 16.2699 15.6666 15.3492 16.2325 14.7833Z" fill="#004540"/>
</svg>
