<svg width="30" height="30" viewBox="0 0 30 30" fill="none" xmlns="http://www.w3.org/2000/svg">
<rect width="30" height="30" rx="15" fill="#FFA722"/>
<path d="M15 12.1689C14.7737 12.1689 14.5898 12.3529 14.5898 12.5791V15.04C14.5898 15.2664 14.7737 15.4502 15 15.4502C15.2263 15.4502 15.4102 15.2664 15.4102 15.04V12.5791C15.4102 12.3529 15.2263 12.1689 15 12.1689Z" fill="white"/>
<path d="M15 17.9111C14.7737 17.9111 14.5898 18.0951 14.5898 18.3213C14.5898 18.5476 14.7737 18.7314 15 18.7314C15.2263 18.7314 15.4102 18.5476 15.4102 18.3213C15.4102 18.0951 15.2263 17.9111 15 17.9111Z" fill="white"/>
<path d="M21.7159 18.1095L16.7636 9.00392C15.969 7.66621 14.0321 7.6645 13.2364 9.00392C13.2335 9.00873 13.2312 9.01354 13.2284 9.01834L8.29114 18.0951C7.47884 19.462 8.46226 21.1928 10.0543 21.1928H19.9442C21.5471 21.1928 22.511 19.447 21.7159 18.1095ZM15 19.5522C14.3215 19.5522 13.7695 19.0003 13.7695 18.3217C13.7695 17.6433 14.3215 17.0913 15 17.0913C15.6785 17.0913 16.2305 17.6433 16.2305 18.3217C16.2305 19.0003 15.6785 19.5522 15 19.5522ZM16.2305 15.0405C16.2305 15.7191 15.6785 16.271 15 16.271C14.3215 16.271 13.7695 15.7191 13.7695 15.0405V12.5795C13.7695 11.9011 14.3215 11.3491 15 11.3491C15.6785 11.3491 16.2305 11.9011 16.2305 12.5795V15.0405Z" fill="white"/>
</svg>
