<svg width="34" height="35" viewBox="0 0 34 35" fill="none" xmlns="http://www.w3.org/2000/svg">
<path fill-rule="evenodd" clip-rule="evenodd" d="M8.50301 19.1897C8.22323 18.6156 7.86205 18.0792 7.42639 17.5985C6.26582 16.3417 5.56055 14.6611 5.56055 12.8175C5.56055 8.90376 8.73774 5.72656 12.6511 5.72656C16.5648 5.72656 19.742 8.90376 19.742 12.8175C19.742 14.6611 19.0367 16.3417 17.8813 17.6032C17.447 18.0829 17.087 18.6174 16.8075 19.1897H8.50301ZM13.5722 9.90989C13.5864 9.82959 13.5442 9.74965 13.4701 9.71586C13.3956 9.6817 13.3077 9.70241 13.2564 9.766C12.4389 10.7732 10.7068 12.9083 10.1192 13.6325C10.0785 13.6826 10.068 13.7509 10.0916 13.8109C10.1152 13.8712 10.1694 13.9141 10.2333 13.9232C10.6999 13.9889 11.5625 14.111 11.9465 14.1652C11.9963 14.1724 12.0407 14.2 12.0694 14.2415C12.0977 14.2825 12.1075 14.3341 12.0962 14.3832C11.9941 14.8276 11.7354 15.9532 11.5607 16.7145C11.5421 16.7959 11.5817 16.8794 11.657 16.9158C11.7318 16.9525 11.8223 16.9325 11.8746 16.8678C12.7557 15.7817 14.5787 13.5351 15.1833 12.7899C15.224 12.7397 15.2346 12.6714 15.2109 12.6111C15.1873 12.5511 15.1332 12.5083 15.0692 12.4992C14.5987 12.4327 13.7255 12.3091 13.3462 12.2557C13.2982 12.2488 13.2546 12.2227 13.2263 12.1834C13.1976 12.1438 13.1863 12.0948 13.1947 12.0468C13.2681 11.6322 13.4498 10.6032 13.5722 9.90989Z" fill="#FFE175"/>
<path fill-rule="evenodd" clip-rule="evenodd" d="M16.1135 23.9113C16.1124 24.464 16.1117 24.9472 16.1113 25.2804C16.1113 25.5987 15.9703 25.9003 15.7269 26.1045C13.6772 27.8159 11.6307 27.8279 9.58432 26.1016C9.34305 25.8981 9.20352 25.5984 9.20352 25.2826C9.19916 24.6278 9.19916 23.3906 9.19916 22.1868C9.19916 21.536 9.10651 20.8947 8.92773 20.2803H16.3904C16.2116 20.8947 16.1189 21.5364 16.1189 22.1868C16.1178 22.3983 16.1171 22.6108 16.1164 22.8212H13.0845C12.7837 22.8212 12.5395 23.0654 12.5395 23.3663C12.5395 23.6671 12.7837 23.9113 13.0845 23.9113H16.1135Z" fill="#FFE175"/>
<path fill-rule="evenodd" clip-rule="evenodd" d="M3.10888 11.4268H0.545035C0.244176 11.4268 0 11.6709 0 11.9718C0 12.2727 0.244176 12.5168 0.545035 12.5168H3.10888C3.40938 12.5168 3.65392 12.2727 3.65392 11.9718C3.65392 11.6709 3.40938 11.4268 3.10888 11.4268Z" fill="#FFE175"/>
<path fill-rule="evenodd" clip-rule="evenodd" d="M24.7632 11.4268H22.1993C21.8985 11.4268 21.6543 11.6709 21.6543 11.9718C21.6543 12.2727 21.8985 12.5168 22.1993 12.5168H24.7632C25.064 12.5168 25.3082 12.2727 25.3082 11.9718C25.3082 11.6709 25.064 11.4268 24.7632 11.4268Z" fill="#FFE175"/>
<path fill-rule="evenodd" clip-rule="evenodd" d="M12.1094 0.545035V3.10888C12.1094 3.40974 12.3539 3.65392 12.6544 3.65392C12.9553 3.65392 13.1994 3.40974 13.1994 3.10888V0.545035C13.1994 0.244539 12.9553 0 12.6544 0C12.3539 0 12.1094 0.244539 12.1094 0.545035Z" fill="#FFE175"/>
<path fill-rule="evenodd" clip-rule="evenodd" d="M20.898 2.80095L19.2531 5.20928C19.0834 5.45781 19.1474 5.79719 19.3959 5.96687C19.6445 6.13656 19.9838 6.07261 20.1535 5.82408L21.7981 3.41575C21.9678 3.16721 21.9038 2.82783 21.6553 2.65815C21.4071 2.48882 21.0674 2.55277 20.898 2.80095Z" fill="#FFE175"/>
<path fill-rule="evenodd" clip-rule="evenodd" d="M3.50901 3.41575L5.15356 5.82408C5.32325 6.07261 5.66262 6.13656 5.91116 5.96687C6.15933 5.79719 6.22328 5.45781 6.0536 5.20928L4.40904 2.80095C4.23936 2.55277 3.89998 2.48882 3.65144 2.65815C3.40327 2.82783 3.33932 3.16721 3.50901 3.41575Z" fill="#FFE175"/>
<path fill-rule="evenodd" clip-rule="evenodd" d="M24.5644 22.0128C25.6843 20.6927 27.3277 19.3385 29.8705 18.0017C30.1365 17.8618 30.2393 17.5319 30.099 17.2659C29.9592 16.9995 29.6292 16.8971 29.3632 17.037C23.4369 20.1524 22.1099 23.3441 21.1601 26.0486C21.054 23.5331 21.5296 20.1015 24.4096 18.0711C28.6195 15.1028 32.6491 14.7402 33.3645 12.4805C34.08 10.2208 34.9088 21.8209 31.067 24.5705C27.6885 26.9886 25.0088 26.3941 22.5932 28.2705C22.518 28.4816 22.4413 28.6884 22.361 28.8911C21.776 30.3653 19.9545 34.7913 15.3747 33.989C13.7534 33.7049 12.8865 32.5425 12.4537 31.225C12.1361 30.2577 12.0613 29.2113 12.0605 28.446C12.2582 28.4707 12.4559 28.4827 12.6532 28.4824C12.8174 28.482 12.982 28.4736 13.1466 28.4562C13.147 29.127 13.212 30.0404 13.4896 30.8849C13.8018 31.8358 14.3929 32.7104 15.5629 32.9153C19.42 33.5912 20.8549 29.7309 21.348 28.4889C22.0972 26.6005 22.5423 24.3579 24.5644 22.0128Z" fill="#FFE175"/>
</svg>
