<svg width="44" height="43" viewBox="0 0 44 43" fill="none" xmlns="http://www.w3.org/2000/svg">
<path d="M38.3972 14.0228L34.9274 1.06376C34.8787 0.881722 34.7947 0.711061 34.68 0.561529C34.5653 0.411996 34.4223 0.286524 34.2591 0.19228C34.0959 0.0980363 33.9158 0.0368687 33.729 0.012272C33.5421 -0.0123246 33.3523 0.000131712 33.1703 0.0489294L31.2181 0.572482C31.0522 0.615717 30.8955 0.68861 30.7555 0.787641L26.5542 3.79197L22.9252 0.682213C22.5331 0.345576 22.0334 0.160496 21.5166 0.160496C20.9998 0.160496 20.5001 0.345576 20.108 0.682213L0.743738 17.3713C0.509637 17.5739 0.322004 17.8246 0.19365 18.1063C0.0652969 18.388 -0.000754368 18.6941 6.49951e-06 19.0037V40.5769C6.49951e-06 41.1476 0.226691 41.6948 0.630192 42.0983C1.03369 42.5018 1.58096 42.7285 2.15159 42.7285H40.8801C41.4508 42.7285 41.998 42.5018 42.4015 42.0983C42.805 41.6948 43.0317 41.1476 43.0317 40.5769V19.0037C43.0326 18.6938 42.9665 18.3874 42.8381 18.1054C42.7096 17.8235 42.5217 17.5726 42.2873 17.3699L38.3972 14.0228ZM41.5823 40.653L28.492 30.1776L41.5973 19.69V40.5769C41.5938 40.6025 41.5887 40.6279 41.5823 40.653ZM1.4344 40.5769V19.6893L14.5433 30.1776L1.44946 40.653C1.44292 40.6279 1.43789 40.6025 1.4344 40.5769ZM21.0655 26.7946C21.1938 26.6943 21.3519 26.6398 21.5148 26.6398C21.6777 26.6398 21.8358 26.6943 21.9641 26.7946L40.0869 41.2941H2.94409L21.0655 26.7946ZM33.5396 1.43455L37.2519 15.2901L35.8662 15.6608L32.154 1.80606L33.5396 1.43455ZM20.7987 9.30721L22.2833 14.8497L18.1235 15.9635C17.3881 16.1604 16.6045 16.057 15.9453 15.6762C15.286 15.2953 14.8051 14.6682 14.6082 13.9328C14.4113 13.1973 14.5147 12.4138 14.8955 11.7545C15.2764 11.0953 15.9035 10.6143 16.6389 10.4174L20.7987 9.30721ZM21.962 16.4204L23.2615 21.27C23.3106 21.4537 23.2848 21.6493 23.1897 21.8139C23.0946 21.9785 22.9381 22.0986 22.7545 22.1479C22.5708 22.1969 22.3752 22.1711 22.2106 22.076C22.046 21.9809 21.9259 21.8244 21.8766 21.6408L20.5771 16.7919L21.962 16.4204ZM23.7263 14.6905L22.1276 8.72341L30.8509 2.48381L34.3989 15.7254L23.7263 14.6905ZM21.0461 1.76661C21.1767 1.6528 21.3441 1.5901 21.5173 1.5901C21.6905 1.5901 21.8579 1.6528 21.9885 1.76661L25.3521 4.64902L20.993 7.76452L16.4388 8.98375C15.3745 9.25126 14.4477 9.90502 13.8386 10.8179C13.2295 11.7308 12.9817 12.8376 13.1433 13.9231C13.2457 14.5119 13.4697 15.073 13.8009 15.5705C14.1321 16.068 14.5633 16.491 15.0671 16.8127C15.5708 17.1343 16.1361 17.3475 16.7268 17.4386C17.3175 17.5297 17.9206 17.4968 18.4979 17.3419L19.1907 17.1569L20.4709 21.9356C20.5811 22.3801 20.8243 22.7805 21.168 23.0831C21.4338 23.31 21.7509 23.4687 22.0917 23.5455C22.4326 23.6224 22.7871 23.6151 23.1245 23.5242C23.4628 23.4341 23.774 23.2628 24.0311 23.0252C24.2881 22.7876 24.4834 22.4909 24.5998 22.1608C24.7439 21.7269 24.7527 21.2594 24.6249 20.8203L23.3591 16.0926L35.1598 17.2401C35.3309 17.2572 35.5037 17.2431 35.6697 17.1985L37.6234 16.675C37.8064 16.6262 37.9779 16.5413 38.1278 16.4255C38.2776 16.3096 38.4029 16.165 38.4962 16.0001L41.1061 18.2456L27.3445 29.261L22.8585 25.6715C22.477 25.3665 22.0032 25.2003 21.5148 25.2003C21.0264 25.2003 20.5526 25.3665 20.1711 25.6715L15.6908 29.2574L1.92496 18.2456L21.0461 1.76661Z" fill="#004540"/>
<path d="M38.1669 7.61994C38.2076 7.77256 38.2976 7.90745 38.4229 8.00368C38.5482 8.0999 38.7017 8.15208 38.8597 8.1521C38.9225 8.15213 38.985 8.14369 39.0455 8.127L41.8167 7.3847C42.0004 7.33544 42.1571 7.2152 42.2522 7.05044C42.3473 6.88567 42.373 6.68988 42.3238 6.50614C42.2745 6.32239 42.1543 6.16574 41.9895 6.07065C41.8247 5.97556 41.6289 5.94982 41.4452 5.99908L38.6739 6.7421C38.4903 6.79135 38.3338 6.91147 38.2387 7.07608C38.1437 7.24068 38.1178 7.4363 38.1669 7.61994Z" fill="#85BF18"/>
<path d="M37.3245 4.10815C37.4188 4.10823 37.5121 4.0897 37.5993 4.05365C37.6864 4.01759 37.7656 3.9647 37.8322 3.89801L39.8605 1.86978C39.929 1.80363 39.9836 1.72449 40.0212 1.63699C40.0588 1.54949 40.0786 1.45538 40.0794 1.36015C40.0802 1.26492 40.0621 1.17048 40.026 1.08234C39.99 0.994196 39.9367 0.91412 39.8694 0.84678C39.802 0.779441 39.7219 0.726187 39.6338 0.690126C39.5457 0.654065 39.4512 0.635918 39.356 0.636746C39.2608 0.637573 39.1667 0.657358 39.0792 0.694946C38.9917 0.732533 38.9125 0.787171 38.8464 0.85567L36.8174 2.8839C36.7171 2.9842 36.6489 3.11198 36.6212 3.25108C36.5935 3.39018 36.6077 3.53436 36.662 3.66539C36.7163 3.79643 36.8082 3.90842 36.9261 3.98723C37.044 4.06604 37.1826 4.10812 37.3245 4.10815Z" fill="#85BF18"/>
<path d="M38.8585 11.5179C38.8341 11.6089 38.8278 11.7038 38.8401 11.7971C38.8524 11.8905 38.8829 11.9806 38.93 12.0622C38.9771 12.1438 39.0398 12.2153 39.1145 12.2726C39.1892 12.33 39.2745 12.3721 39.3655 12.3964L42.1368 13.1387C42.1973 13.1554 42.2598 13.1639 42.3225 13.1638C42.4966 13.1639 42.6647 13.1007 42.7956 12.986C42.9265 12.8713 43.0112 12.7129 43.0339 12.5403C43.0566 12.3678 43.0158 12.1928 42.9191 12.0481C42.8224 11.9034 42.6764 11.7988 42.5083 11.7538L39.737 11.0108C39.6461 10.9864 39.5512 10.9802 39.4578 10.9924C39.3644 11.0047 39.2743 11.0353 39.1927 11.0824C39.1111 11.1294 39.0396 11.1921 38.9823 11.2669C38.9249 11.3416 38.8829 11.4269 38.8585 11.5179Z" fill="#85BF18"/>
</svg>
