<svg width="26" height="26" viewBox="0 0 26 26" fill="none" xmlns="http://www.w3.org/2000/svg">
<path d="M24.393 2.74141C23.4644 5.49401 16.9515 7.00458 14.4954 9.66766C12.186 12.1741 13.078 14.9379 13.7867 15.7099C14.5443 14.3672 15.9251 13.4049 17.3792 12.7112C24.8818 9.11938 24.3319 4.59885 24.4053 3.4911C24.7107 5.6059 24.1364 7.58643 22.1447 9.86907C21.717 10.3614 20.1652 11.5922 18.6378 12.4874C16.9393 13.4833 15.2652 14.3113 14.251 15.9673C13.9333 16.482 13.7256 17.0303 13.5057 17.5786C13.3102 18.0709 13.1146 18.5744 12.9191 19.0668C12.8214 18.7087 12.7358 18.3395 12.6625 17.9702C12.4181 16.7618 12.2959 15.5309 12.1982 14.3001C12.076 12.5993 12.2349 10.8873 12.7603 9.25365C13.7012 6.32202 14.9353 6.07586 14.8376 4.95691C14.8009 4.43101 14.1899 3.79321 13.4812 4.64361C12.9314 5.2926 11.7461 9.9474 11.3428 12.1517C11.294 12.0398 11.2329 11.9279 11.184 11.816C10.964 11.3685 10.7441 10.9209 10.4508 10.5069C9.48552 9.17533 8.03142 8.5711 6.54067 7.8326C5.19655 7.16123 3.82799 6.22132 3.42475 5.82969C1.60408 4.02819 0.993114 2.40573 1.10309 0.615418C1.22528 1.54414 1.07865 5.37092 7.60374 7.95568C8.87455 8.4592 10.0965 9.18652 10.8174 10.2719C11.3551 9.57815 11.9294 7.21718 9.81544 5.24784C7.57931 3.15542 2.01953 2.26026 1.05421 0C-0.351008 2.17075 -0.399881 5.15832 1.20084 7.63119C1.48189 8.06757 1.83624 8.4592 2.23948 8.79489C3.75467 10.0929 5.89305 10.6635 7.93367 10.6859C8.38578 10.6859 9.65658 10.7418 10.2187 11.7713C10.4386 12.1853 10.6586 12.8231 10.8296 13.5168C10.9885 14.177 11.0496 14.8596 11.0374 15.5421C11.0374 16.6387 11.1229 17.724 11.3184 18.7982C11.685 20.8795 12.6625 22.1551 11.9049 24.572C11.6972 25.2433 12.1127 25.9147 12.8703 25.993C13.5423 26.0602 14.1411 25.635 14.2388 25.0419C14.3488 24.3929 14.2999 23.6209 14.0311 22.7817C13.9944 22.6362 13.9455 22.4012 13.9089 22.2558C13.7989 20.8459 14.1411 18.5297 14.6298 17.4443C15.2041 16.1687 16.7071 16.0121 17.2448 15.9673C19.6642 15.7883 22.1447 14.9267 23.8187 13.2707C24.2586 12.8343 24.6374 12.3419 24.9307 11.8048C26.5925 8.75013 26.2504 5.20308 24.3686 2.74141H24.393Z" fill="#FFE175"/>
</svg>
