<svg width="210" height="147" viewBox="0 0 210 147" fill="none" xmlns="http://www.w3.org/2000/svg">
<path opacity="0.05" d="M16.4353 148.11C15.7749 149.44 16.742 151 18.2265 151H58.7603C59.5197 151 60.2136 150.57 60.5515 149.89L89.7912 91.0203C89.9285 90.7439 90 90.4394 90 90.1307V2C90 0.895431 89.1046 0 88 0H2C0.89543 0 0 0.89543 0 2V88.6C0 89.7046 0.895431 90.6 2 90.6H41.7735C43.258 90.6 44.2251 92.1602 43.5647 93.4897L16.4353 148.11ZM136.435 148.11C135.775 149.44 136.742 151 138.226 151H178.76C179.52 151 180.214 150.57 180.551 149.89L209.791 91.0203C209.929 90.7439 210 90.4394 210 90.1307V2C210 0.895431 209.105 0 208 0H122C120.895 0 120 0.89543 120 2V88.6C120 89.7046 120.895 90.6 122 90.6H161.774C163.258 90.6 164.225 92.1602 163.565 93.4897L136.435 148.11Z" fill="#004540"/>
</svg>
