<svg width="25" height="24" viewBox="0 0 25 24" fill="none" xmlns="http://www.w3.org/2000/svg">
<g clip-path="url(#clip0_902_9744)">
<path d="M24.7168 2.75002L22.2668 2.34998L21.8668 0L21.5168 2.4L19.2168 2.75002L21.5168 3.09998L21.8668 5.49998L22.2668 3.15L24.7168 2.75002Z" fill="#FFD15C"/>
<path d="M4.91637 0L4.81639 0.950016L3.81641 1.10002L4.76637 1.25002L4.91637 2.19998L5.11639 1.25002L6.06641 1.10002L5.06638 0.950016L4.91637 0Z" fill="#FFD15C"/>
<path d="M3.56598 3.04963L3.316 1.34961L3.06602 3.04963L1.41602 3.29961L3.06602 3.59961L3.316 5.29962L3.56598 3.59961L5.31602 3.29961L3.56598 3.04963Z" fill="#004540"/>
<path d="M16.5164 10.0998L13.4664 4.2998H12.2164L8.81641 10.0998H16.5164Z" fill="#00756D"/>
<path d="M20.4149 4.2998H13.4648L16.5149 10.0998L20.4149 4.2998Z" fill="#004540"/>
<path d="M24.6156 10.0998L20.4656 4.2998H20.4156L16.5156 10.0998H24.6156Z" fill="#00756D"/>
<path d="M12.7164 23.9996L16.5164 10.0996H8.81641L12.7164 23.9996Z" fill="#FFE175"/>
<path d="M12.2156 4.2998H5.01562L8.81559 10.0998L12.2156 4.2998Z" fill="#004540"/>
<path d="M5.01641 4.2998H4.96639L0.816406 10.0998H8.81637L5.01641 4.2998Z" fill="#00756D"/>
<path d="M24.6164 10.0996L12.7164 23.9996L0.816406 10.0996H8.81638L12.7164 23.9996L16.5164 10.0996H24.6164Z" fill="#004540"/>
<path d="M16.5168 8.55078L16.3168 9.85077L14.9668 10.0508L16.3168 10.2508L16.5168 11.6508L16.7168 10.2508L18.0668 10.0508L16.7168 9.85077L16.5168 8.55078Z" fill="white"/>
<path d="M6.71598 5.65039L6.51602 6.95042L5.16602 7.15039L6.466 7.35041L6.71598 8.75042L6.916 7.40042L8.266 7.15039L6.916 6.95042L6.71598 5.65039Z" fill="white"/>
</g>
<defs>
<clipPath id="clip0_902_9744">
<rect width="24" height="24" fill="white" transform="translate(0.765625)"/>
</clipPath>
</defs>
</svg>
