<svg width="36" height="54" viewBox="0 0 36 54" fill="none" xmlns="http://www.w3.org/2000/svg">
<path d="M30.7024 44.5861H22.2146C19.5968 41.9341 18.1242 38.4963 18.1242 34.8518C18.1242 27.7601 22.0024 22.2327 27.9719 20.4433L23.2383 17.7488L16.8107 21.4076C14.8077 24.0039 13.5687 27.1962 13.2318 30.6562C12.5911 36.9515 17.3681 42.3067 19.7887 44.5861H17.42C14.6936 41.6896 10.9471 36.5319 11.5624 30.4903C11.9243 26.7684 13.2548 23.322 15.4005 20.4958L16.9146 13.1538L11.7183 8.41797C6.1069 11.4486 3.56197 20.0227 5.53357 29.575C6.87618 36.0435 10.2387 41.6182 14.5632 44.5861H5.29761L0 53.8964H36L30.7024 44.5861ZM11.1814 52.2055L9.25529 51.109L7.32892 52.2055L7.77642 50.0347L6.13822 48.5415L8.34133 48.2962L9.25529 46.277L10.169 48.2962L12.3719 48.5415L10.7339 50.0347L11.1814 52.2055ZM20.1299 52.2055L18.2035 51.109L16.2773 52.2055L16.7248 50.0347L15.0866 48.5415L17.2897 48.2962L18.2035 46.277L19.1174 48.2962L21.3204 48.5415L19.6822 50.0347L20.1299 52.2055ZM28.6712 52.2055L26.745 51.109L24.8186 52.2055L25.2661 50.0347L23.6281 48.5415L25.831 48.2962L26.745 46.277L27.6589 48.2962L29.8616 48.5415L28.2236 50.0347L28.6712 52.2055Z" fill="#FFE175"/>
<path d="M19.9885 7.3336L13.7773 8.02507L18.3962 12.2346C18.6149 12.4341 18.7124 12.7344 18.6526 13.0245L17.3905 19.1451L22.8217 16.0535C22.9503 15.9801 23.0933 15.9437 23.2366 15.9437C23.38 15.9437 23.523 15.9801 23.6516 16.0535L29.0828 19.1451L27.8207 13.0245C27.7608 12.7344 27.8583 12.4341 28.0771 12.2346L32.6959 8.02507L26.4848 7.3336C26.1906 7.30084 25.9354 7.11565 25.8134 6.84575L23.2366 1.15234L20.6599 6.84575C20.5378 7.11565 20.2827 7.30084 19.9885 7.3336Z" fill="#FFE175"/>
<path d="M11.4881 6.63466C11.4949 6.63146 11.5023 6.63256 11.509 6.62952C11.5852 6.59626 11.6663 6.57285 11.7515 6.56333L11.8093 6.55693C11.8106 6.55685 11.8118 6.55659 11.813 6.55651L19.3305 5.71985L21.9191 0C19.29 0.128004 13.0739 0.933757 8.84812 5.5521C6.7481 7.84742 5.39908 10.7852 4.79688 14.328C6.19827 10.7816 8.47716 8.04405 11.4881 6.63466Z" fill="#FFE175"/>
</svg>
