<svg width="30" height="26" viewBox="0 0 30 26" fill="none" xmlns="http://www.w3.org/2000/svg">
<path d="M22.2418 15.5149C26.5195 15.5149 29.9993 12.0352 29.9993 7.75747C29.9993 3.47977 26.5195 0 22.2418 0C17.9641 0 14.4843 3.47977 14.4843 7.75747C14.4843 12.0352 17.9641 15.5149 22.2418 15.5149ZM23.1038 8.61941H21.3799C19.954 8.61941 18.794 7.45947 18.794 6.03359C18.794 4.60771 19.954 3.44776 21.3799 3.44776V1.72388H23.1038V3.44776C24.5296 3.44776 25.6896 4.60771 25.6896 6.03359H23.9657C23.9657 5.55802 23.5793 5.17164 23.1038 5.17164H21.3799C20.9043 5.17164 20.5179 5.55802 20.5179 6.03359C20.5179 6.50915 20.9043 6.89553 21.3799 6.89553H23.1038C24.5296 6.89553 25.6896 8.05547 25.6896 9.48135C25.6896 10.9072 24.5296 12.0672 23.1038 12.0672V13.7911H21.3799V12.0672C19.954 12.0672 18.794 10.9072 18.794 9.48135H20.5179C20.5179 9.95691 20.9043 10.3433 21.3799 10.3433H23.1038C23.5793 10.3433 23.9657 9.95691 23.9657 9.48135C23.9657 9.00579 23.5793 8.61941 23.1038 8.61941Z" fill="#FFE175"/>
<path d="M0 14.8984H3.44776V22.6559H0V14.8984Z" fill="#004540"/>
<path d="M25.0013 16.9586L19.2435 20.0694H10.401V18.3455H19.0204V17.4835C19.0204 16.0554 17.8627 14.8977 16.4346 14.8977H13.3142C12.6712 14.3632 10.9818 13.1738 8.6771 13.1738C7.26128 13.1738 6.02342 13.6231 5.17188 14.0933V22.8558L16.5566 25.241L29.4211 18.6973C29.4211 18.6973 28.9646 17.8997 28.9593 17.8905C28.1767 16.5432 26.3634 16.2022 25.0013 16.9586Z" fill="#004540"/>
</svg>
