<svg width="31" height="35" viewBox="0 0 31 35" fill="none" xmlns="http://www.w3.org/2000/svg">
<path d="M13.3789 32.9805V34.0384C13.3789 34.5693 13.8091 34.9995 14.34 34.9995H16.6308C17.1542 34.9995 17.5782 34.5752 17.5782 34.0521V32.9805H13.3789Z" fill="#004540"/>
<path d="M14.7664 34.0384V32.9805H13.3789V34.0384C13.3789 34.5693 13.8091 34.9995 14.34 34.9995H15.7274C15.1969 34.9995 14.7664 34.5693 14.7664 34.0384Z" fill="#004540"/>
<path d="M19.5507 32.576V29.9033C19.3232 29.9033 11.5721 29.9033 11.4062 29.9033V32.568C11.4062 32.8724 11.653 33.1189 11.9571 33.1189H19.0076C19.3077 33.1189 19.5507 32.8759 19.5507 32.576Z" fill="#004540"/>
<path d="M12.794 32.568V29.9033H11.4062V32.568C11.4062 32.8724 11.653 33.1189 11.9571 33.1189H13.3449C13.0407 33.1189 12.794 32.8724 12.794 32.568Z" fill="#004540"/>
<path d="M26.249 15.6284C26.249 9.73052 21.5079 4.94024 15.6289 4.8604C9.68134 4.77976 4.82671 9.47043 4.71296 15.4175C4.65207 18.5992 5.97148 21.4732 8.11253 23.4824C9.05622 24.3681 9.63408 25.6165 9.63408 26.9663H21.326C21.326 25.6159 21.9039 24.3678 22.8471 23.4829C24.9409 21.5184 26.249 18.7263 26.249 15.6284Z" fill="#FFE175"/>
<path d="M9.50003 23.4824C7.35897 21.4735 6.03957 18.5992 6.10045 15.4178C6.20887 9.75482 10.616 5.23104 16.1718 4.88123C15.9921 4.87001 15.811 4.8628 15.6289 4.8604C9.68134 4.77976 4.82645 9.4707 4.71296 15.4178C4.65207 18.5992 5.97148 21.4735 8.11227 23.4824C9.07678 24.3873 9.63381 25.6437 9.63381 26.9663H11.0216C11.0216 25.6437 10.4645 24.3873 9.50003 23.4824Z" fill="white"/>
<path d="M9.63281 26.9668V28.3206C9.63281 29.2723 10.4043 30.0438 11.356 30.0438H19.6038C20.5544 30.0438 21.325 29.2731 21.325 28.3225V26.9668C20.7822 26.9668 10.1407 26.9668 9.63281 26.9668Z" fill="#004540"/>
<path d="M11.0329 28.3206V26.9668H9.63281V28.3206C9.63281 29.2723 10.4043 30.0438 11.356 30.0438H12.7557C11.8043 30.0438 11.0329 29.2723 11.0329 28.3206Z" fill="#004540"/>
<path d="M16.0295 10.7999C15.6909 10.5953 15.264 10.5953 14.9254 10.7999C12.5918 12.209 11.0312 14.7693 11.0312 17.6941C11.0312 20.6192 12.5918 23.1795 14.9254 24.5886C15.264 24.7929 15.6909 24.7929 16.0295 24.5886C18.3631 23.1795 19.9237 20.6192 19.9237 17.6941C19.9237 14.7693 18.3631 12.209 16.0295 10.7999Z" fill="white"/>
<path d="M12.4187 17.6941C12.4187 14.8291 13.9165 12.3148 16.1713 10.8885C16.1241 10.8586 16.0773 10.8287 16.0295 10.7999C15.6909 10.5953 15.264 10.5953 14.9254 10.7999C12.5918 12.209 11.0312 14.7693 11.0312 17.6941C11.0312 20.6192 12.5918 23.1795 14.9254 24.5886C15.264 24.7929 15.6909 24.7929 16.0295 24.5886C16.0773 24.5598 16.1241 24.5296 16.1713 24.4999C13.9165 23.0737 12.4187 20.5594 12.4187 17.6941Z" fill="#FFE175"/>
<path d="M1.96909 15.9999H0.520444C0.232851 15.9999 0 15.767 0 15.4794C0 15.1921 0.232851 14.959 0.520444 14.959H1.96909C2.25642 14.959 2.48953 15.1921 2.48953 15.4794C2.48953 15.767 2.25642 15.9999 1.96909 15.9999Z" fill="#FFE175"/>
<path d="M30.4359 15.9999H28.9872C28.6996 15.9999 28.4668 15.767 28.4668 15.4794C28.4668 15.1921 28.6996 14.959 28.9872 14.959H30.4359C30.7232 14.959 30.9563 15.1921 30.9563 15.4794C30.9563 15.767 30.7232 15.9999 30.4359 15.9999Z" fill="#FFE175"/>
<path d="M2.07176 23.218C1.92809 22.9691 2.01328 22.6508 2.26215 22.5072L3.51666 21.7827C3.7658 21.639 4.08384 21.7242 4.2275 21.9731C4.37143 22.222 4.28598 22.5403 4.03711 22.6839L2.78259 23.4084C2.53372 23.552 2.21542 23.4669 2.07176 23.218Z" fill="#FFE175"/>
<path d="M26.7258 8.98459C26.5821 8.73572 26.6673 8.41742 26.9162 8.27375L28.171 7.5493C28.4199 7.40563 28.7382 7.49082 28.8818 7.73969C29.0255 7.98883 28.9403 8.30686 28.6912 8.45053L27.4366 9.17498C27.1878 9.31865 26.8695 9.23346 26.7258 8.98459Z" fill="#FFE175"/>
<path d="M21.9733 4.22957C21.7242 4.08591 21.639 3.76788 21.7827 3.51874L22.5071 2.26422C22.6508 2.01535 22.9691 1.9299 23.218 2.07383C23.4669 2.21749 23.552 2.53579 23.4084 2.78467L22.6842 4.03918C22.5403 4.28805 22.222 4.3735 21.9733 4.22957Z" fill="#FFE175"/>
<path d="M15.4792 2.48953C15.1918 2.48953 14.959 2.25642 14.959 1.96909V0.520444C14.959 0.232851 15.1918 0 15.4792 0C15.7668 0 15.9996 0.232851 15.9996 0.520444V1.96909C15.9996 2.25642 15.7668 2.48953 15.4792 2.48953Z" fill="#FFE175"/>
<path d="M8.27271 4.03918L7.54825 2.78467C7.40459 2.53579 7.49004 2.21749 7.73891 2.07383C7.98779 1.9299 8.30609 2.01535 8.44975 2.26422L9.17394 3.51874C9.3176 3.76788 9.23242 4.08591 8.98355 4.22957C8.73467 4.3735 8.41637 4.28805 8.27271 4.03918Z" fill="#FFE175"/>
<path d="M28.171 23.4084L26.9162 22.6839C26.6673 22.5403 26.5821 22.222 26.7258 21.9731C26.8695 21.7242 27.1878 21.639 27.4366 21.7827L28.6912 22.5072C28.9403 22.6508 29.0255 22.9691 28.8818 23.218C28.7382 23.4669 28.4199 23.552 28.171 23.4084Z" fill="#FFE175"/>
<path d="M3.51693 9.17498L2.26215 8.45053C2.01328 8.30686 1.92809 7.98883 2.07176 7.73969C2.21542 7.49082 2.53372 7.40563 2.78259 7.5493L4.03711 8.27375C4.28625 8.41742 4.37143 8.73572 4.22777 8.98459C4.08384 9.23346 3.7658 9.31865 3.51693 9.17498Z" fill="#FFE175"/>
<path d="M15.9978 20.126V17.1802L19.3076 14.6025C19.1706 14.2738 19.0123 13.9566 18.8347 13.6516L15.9978 15.861V10.7834C15.6752 10.6034 15.2797 10.6034 14.9571 10.7834V15.8765L12.1138 13.662C11.9368 13.9672 11.7789 14.285 11.6425 14.614L14.9571 17.1954V20.1386L11.0321 17.6469C11.0318 17.6632 11.0312 17.6792 11.0312 17.6955C11.0312 18.1188 11.0641 18.5345 11.1271 18.9399L14.9571 21.3712V26.9669H15.9978V21.3587L19.8297 18.9263C19.8911 18.5249 19.9237 18.1142 19.9237 17.6955C19.9237 17.6752 19.9229 17.6549 19.9226 17.6344L15.9978 20.126Z" fill="#FFE175"/>
</svg>
